<svg width="25" height="22" viewBox="0 0 25 22" fill="none" stroke="black" xmlns="http://www.w3.org/2000/svg">
<path opacity="0.4" d="M8.9699 12.6986C8.94179 12.6653 8.90105 12.6252 8.84483 12.5902C8.79827 12.5596 8.76987 12.542 8.74651 12.5276C8.71965 12.511 8.69944 12.4985 8.66593 12.4749L8.66603 12.4748L8.65508 12.4675C6.49156 11.0278 5.53824 9.13108 5.85147 6.80453L5.85148 6.80441C6.1698 4.43598 7.64324 2.78283 10.1872 1.8813L10.1873 1.88128C10.4307 1.79497 10.6925 1.73221 10.9776 1.67261C11.0649 1.65436 11.1568 1.63597 11.2511 1.6171C11.433 1.5807 11.6239 1.54249 11.8084 1.5H13.1666C13.2365 1.52423 13.3078 1.54446 13.3801 1.56064L13.4018 1.56551L13.4239 1.56842C16.0188 1.91065 17.8936 3.4156 18.7331 5.26695C19.5698 7.11218 19.3944 9.33027 17.8284 11.1776L17.8271 11.1792C17.6024 11.4465 17.3325 11.6961 17.0315 11.9548C16.9291 12.0429 16.8198 12.1347 16.7076 12.2289C16.504 12.3998 16.2912 12.5785 16.0941 12.7563L15.406 13.3771L16.3028 13.6113C16.3554 13.625 16.4128 13.6401 16.4731 13.6561C16.5876 13.6862 16.7127 13.7192 16.8361 13.7509L16.8374 13.7512C18.5785 14.1931 20.1477 14.8811 21.464 15.9622L21.4664 15.9642C22.5315 16.828 23.2419 17.9786 23.5 19.2314V20.5H1.5V19.2404C1.72379 18.3138 2.07744 17.4837 2.71099 16.7732L2.71127 16.7729C4.10862 15.2033 5.99942 14.32 8.17472 13.7483C8.29508 13.7167 8.41813 13.6834 8.54205 13.6498C8.61841 13.629 8.6951 13.6082 8.77168 13.5877L9.44734 13.4066L9.05727 12.826C9.04539 12.8083 9.0399 12.7994 9.03284 12.788C9.0296 12.7828 9.02602 12.777 9.02135 12.7696L9.0207 12.7685C9.0155 12.7603 8.99647 12.73 8.9699 12.6986Z" />
</svg>
