<svg width="21" height="21" viewBox="0 0 21 21" fill="black" xmlns="http://www.w3.org/2000/svg">
<g opacity="0.4" clip-path="url(#clip0_14_229)">
<path d="M19.6831 4.61177C19.6831 5.44675 19.6831 6.28173 19.6831 7.11614C19.6775 8.3672 18.8378 9.19937 17.5948 9.19937C15.9418 9.19937 14.29 9.19937 12.6393 9.19937C11.3196 9.19937 10.498 8.38072 10.498 7.05984C10.4928 5.40828 10.4928 3.75671 10.498 2.10515C10.502 0.901387 11.3055 0.0444546 12.5092 0.0253114C14.226 -0.00208949 15.9435 -0.00208949 17.6618 0.0253114C18.9015 0.0450176 19.6735 0.869861 19.6842 2.10853C19.6915 2.94351 19.6842 3.77849 19.6842 4.6129L19.6831 4.61177ZM11.8189 4.60108C11.8189 5.21141 11.8037 5.82174 11.8223 6.43094C11.8504 7.33179 12.4021 7.8768 13.3048 7.88581C14.507 7.89819 15.7091 7.89819 16.9112 7.88581C17.783 7.87792 18.373 7.27436 18.3763 6.40504C18.3812 5.24144 18.3812 4.07784 18.3763 2.91424C18.3763 1.91148 17.8128 1.3338 16.8126 1.32254C15.6578 1.3094 14.503 1.3094 13.3482 1.32254C12.3903 1.33211 11.8217 1.92048 11.8189 2.88383C11.817 3.45587 11.817 4.02791 11.8189 4.59995V4.60108Z"/>
<path d="M4.59985 19.6819C3.76417 19.6819 2.92794 19.6915 2.09226 19.6819C0.818752 19.6639 0.0180204 18.8672 0.00731388 17.5959C-0.00508315 15.9254 -0.00282915 14.2548 0.00731388 12.5849C0.0129489 11.3541 0.848618 10.5118 2.07874 10.5045C3.75084 10.4936 5.42256 10.4936 7.0939 10.5045C8.38207 10.5135 9.18731 11.3434 9.18957 12.6389C9.18957 14.2909 9.18957 15.9428 9.18957 17.5937C9.18957 18.8267 8.37305 19.6662 7.13392 19.6819C6.28866 19.6926 5.44341 19.6819 4.59816 19.6819H4.59985ZM4.60774 18.3762C5.20899 18.3762 5.80968 18.3824 6.41094 18.3762C7.23872 18.3655 7.85181 17.8183 7.86872 17.0098C7.89576 15.7441 7.89576 14.4774 7.86872 13.2099C7.85237 12.403 7.33001 11.862 6.52083 11.8395C5.24356 11.8045 3.96629 11.803 2.68902 11.8349C1.85335 11.8552 1.32309 12.4475 1.31351 13.309C1.29999 14.4913 1.29999 15.6737 1.31351 16.8561C1.32534 17.8093 1.90519 18.3672 2.8592 18.3762C3.44355 18.3813 4.02564 18.3768 4.60774 18.3762Z" />
<path d="M4.58917 9.19546C3.75294 9.19546 2.91726 9.20109 2.08159 9.19546C0.841888 9.1842 0.015233 8.36386 0.008471 7.12519C-0.00054502 5.4451 -0.00054502 3.765 0.008471 2.08491C0.0124155 0.878335 0.850344 0.0264673 2.06356 0.0168958C3.7443 0.0041337 5.42541 0.0041337 7.1069 0.0168958C8.3714 0.0270304 9.18396 0.847923 9.19185 2.10518C9.19974 3.79427 9.19974 5.48337 9.19185 7.17247C9.18734 8.3357 8.3466 9.17968 7.18353 9.19375C6.31969 9.20389 5.45528 9.19375 4.59143 9.19375L4.58917 9.19546ZM7.87946 4.62475C7.87946 4.06171 7.87946 3.49868 7.87946 2.93565C7.87607 1.89291 7.33173 1.33214 6.28474 1.32144C5.13933 1.31018 3.99355 1.31018 2.84739 1.32144C1.88493 1.3327 1.31692 1.92049 1.31354 2.88328C1.30903 3.99095 1.30903 5.09825 1.31354 6.20517C1.31059 6.42994 1.33539 6.65424 1.38736 6.87295C1.55641 7.50861 2.10751 7.88303 2.86936 7.88641C4.02398 7.89091 5.17972 7.88641 6.33377 7.88641C7.28214 7.88641 7.88171 7.28621 7.87833 6.33807C7.87776 5.7694 7.87946 5.19679 7.87946 4.62475Z" />
<path d="M18.7872 17.8301C19.4634 18.5018 20.1277 19.1617 20.787 19.8295C21.0321 20.0778 21.0631 20.4139 20.8935 20.6796C20.7239 20.9454 20.396 21.0738 20.1046 20.9612C19.9599 20.8961 19.8292 20.8036 19.7198 20.6887C19.0841 20.0648 18.4558 19.4342 17.8264 18.8065C15.3859 20.4955 12.57 19.5282 11.3106 17.7113C10.0439 15.8849 10.2963 13.3022 11.9305 11.7741C13.6277 10.1892 16.2024 10.0851 17.9819 11.5343C19.7891 13.001 20.3047 15.6928 18.7872 17.8301ZM11.82 15.0842C11.7913 16.8572 13.2586 18.3498 15.0517 18.3757C16.8605 18.4005 18.3471 16.9405 18.3764 15.1101C18.404 13.3416 16.9411 11.8569 15.1368 11.8237C13.3325 11.7905 11.8499 13.2403 11.82 15.0842Z" />
</g>
<defs>
<clipPath id="clip0_14_229">
<rect width="21" height="21" fill="white"/>
</clipPath>
</defs>
</svg>
