<svg width="26" height="22" viewBox="0 0 26 22" fill="black" xmlns="http://www.w3.org/2000/svg">
<g opacity="0.4" clip-path="url(#clip0_14_225)">
<path d="M13.0018 21.9977C10.5709 21.9977 8.14032 21.9977 5.70989 21.9977C3.95359 21.9977 2.76839 20.8292 2.77014 19.1118C2.77304 16.5925 2.78176 14.0755 2.76607 11.5551C2.7591 10.4387 3.22272 9.60513 4.1732 8.99173C6.54437 7.4601 8.91032 5.92089 11.271 4.37417C11.6248 4.1433 11.9775 3.91072 12.3319 3.68098C12.8623 3.33693 13.1348 3.33242 13.6612 3.67534C16.0827 5.25262 18.5035 6.83101 20.9234 8.41055C21.3011 8.6567 21.6863 8.89439 22.0534 9.15469C22.8354 9.70868 23.2258 10.4669 23.227 11.4074C23.2301 14.0104 23.2301 16.6134 23.227 19.2164C23.227 20.7817 22.0151 21.9892 20.4093 21.9932C17.9401 22.004 15.4709 21.9977 13.0018 21.9977ZM16.72 20.1869H17.0936C18.1684 20.1869 19.2432 20.1869 20.318 20.1869C21.0048 20.1869 21.3638 19.8237 21.3638 19.1486C21.3638 16.6107 21.358 14.0733 21.3685 11.5353C21.3685 11.0826 21.2017 10.7691 20.8177 10.5201C18.2804 8.87345 15.7479 7.2213 13.2202 5.56367C13.0581 5.45785 12.9535 5.45049 12.788 5.56367C10.234 7.23639 7.67651 8.90362 5.11555 10.5654C4.77916 10.7844 4.62985 11.0747 4.63101 11.4708C4.63682 14.0361 4.63799 16.6014 4.6345 19.1667C4.6345 19.8197 5.00168 20.1852 5.67329 20.1852C6.76786 20.1875 7.86223 20.1875 8.95641 20.1852H9.28001V19.8649C9.28001 18.7705 9.27362 17.6761 9.28001 16.5829C9.29047 15.055 10.4855 13.8758 12.0507 13.8481C12.6797 13.8367 13.3091 13.8367 13.9389 13.8481C14.1708 13.8509 14.4015 13.8807 14.6262 13.9369C15.8852 14.2662 16.709 15.3041 16.7177 16.5739C16.7253 17.7628 16.7189 18.9511 16.7189 20.1864L16.72 20.1869ZM11.1426 20.1666H14.8551C14.8551 18.9307 14.8656 17.7152 14.8499 16.5003C14.8441 16.0374 14.4345 15.6707 13.9557 15.6628C13.3167 15.6526 12.6776 15.6526 12.0385 15.6628C11.5615 15.6707 11.1513 16.0414 11.1455 16.502C11.1287 17.7158 11.1415 18.9313 11.1415 20.166L11.1426 20.1666Z"/>
<path d="M18.5774 3.1684C18.5774 2.77907 18.5745 2.43278 18.5774 2.08987C18.5867 1.05092 19.385 0.267712 20.4557 0.262053C20.8897 0.262053 21.3324 0.242851 21.7571 0.314717C22.6129 0.459014 23.2171 1.19239 23.2224 2.04289C23.2305 3.3825 23.2305 4.72174 23.2224 6.06059C23.216 6.143 23.2338 6.22545 23.2737 6.29838C23.3137 6.37131 23.374 6.43168 23.4478 6.47251C24.1616 6.9418 24.8698 7.41924 25.5724 7.90476C25.9419 8.15884 26.075 8.53176 25.9611 8.91825C25.8554 9.27814 25.5201 9.57353 25.1349 9.55712C24.886 9.54375 24.6452 9.46558 24.4378 9.33077C21.8137 7.58034 19.1948 5.81857 16.5812 4.0455C15.6106 3.39097 14.6401 2.73608 13.6699 2.0808C13.1412 1.72487 12.8193 1.72882 12.2918 2.08589C8.71413 4.50556 5.13646 6.92466 1.55879 9.3432C0.902863 9.78628 0.125512 9.51636 0.0122214 8.80109C-0.0540103 8.38178 0.154561 8.08298 0.501987 7.84928C1.98387 6.85372 3.46343 5.85401 4.94067 4.85015C7.03917 3.43019 9.13728 2.01004 11.235 0.589695C12.397 -0.19517 13.5467 -0.202522 14.7157 0.58008C15.9287 1.39041 17.136 2.20925 18.3462 3.02411C18.4066 3.06711 18.4711 3.10332 18.5774 3.1684ZM20.4366 2.07854C20.4366 2.84869 20.4366 3.59169 20.4395 4.33468C20.4399 4.36174 20.4458 4.38842 20.457 4.4132C20.4682 4.43799 20.4843 4.46037 20.5045 4.47896C20.7741 4.67023 21.0501 4.85298 21.3423 5.05047V2.07854H20.4366Z" />
</g>
<defs>
<clipPath id="clip0_14_225">
<rect width="26" height="22" fill="white"/>
</clipPath>
</defs>
</svg>
