<svg width="22" height="21" viewBox="0 0 22 21" fill="black" xmlns="http://www.w3.org/2000/svg">
<g opacity="0.4" clip-path="url(#clip0_14_218)">
<path d="M8.8133 20.9946H0.816808C0.181383 20.9946 0.00213263 20.8145 0.00159595 20.1772C0.00159595 15.1542 0.000343312 10.1316 -0.00216118 5.10967C-0.00758911 4.98408 0.0182846 4.85911 0.0731108 4.74611C0.127937 4.63312 0.209981 4.53566 0.311795 4.4626C2.15367 3.05361 3.98964 1.63601 5.83957 0.236186C6.0113 0.105694 6.25979 0.0744465 6.47607 0.0081222C6.54154 -0.011829 6.61829 0.00485738 6.69074 0.00485738H20.9626C21.0785 0.00485738 21.195 0.00485738 21.3109 0.00485738C21.7569 -0.00484862 21.9973 0.22489 21.9978 0.668669C21.9978 1.56701 21.9978 2.4659 21.9978 3.36478C21.9978 7.12927 21.9993 10.8939 22.0021 14.6587C22.0062 14.9546 21.9035 15.242 21.7129 15.4676C20.3175 17.2114 18.9279 18.9587 17.544 20.7093C17.4745 20.8025 17.3837 20.8775 17.2792 20.9279C17.1748 20.9783 17.0598 21.0027 16.944 20.9989C14.2341 20.9989 11.5246 20.9989 8.81544 20.9989L8.8133 20.9946ZM1.12432 19.8677H16.4588V5.55721H1.12432V19.8677ZM20.8848 1.90561C19.7787 3.01911 18.7348 4.06577 17.6996 5.12157C17.6314 5.19113 17.603 5.32862 17.603 5.43431C17.598 9.80884 17.5969 14.1835 17.5998 18.5584C17.5998 18.6328 17.61 18.7072 17.6186 18.828C17.7071 18.7202 17.7645 18.6528 17.8198 18.5837C18.7858 17.3705 19.7556 16.1605 20.7114 14.9391C20.8154 14.8001 20.8736 14.632 20.8778 14.4582C20.8871 10.3892 20.8894 6.32007 20.8848 2.25074V1.90561ZM20.0717 1.12969C19.9976 1.12214 19.9644 1.11621 19.9332 1.11621C17.9932 1.11621 16.0525 1.11351 14.1124 1.12106C13.9999 1.12888 13.8932 1.17381 13.8087 1.24886C12.6888 2.24031 11.5722 3.23626 10.4587 4.2367C10.407 4.28806 10.3579 4.34205 10.3117 4.39846C10.3825 4.4044 10.419 4.41031 10.4518 4.41031C12.5174 4.41031 14.5842 4.41299 16.6482 4.40436C16.7676 4.3935 16.8793 4.34083 16.9638 4.25555C17.9497 3.27686 18.9275 2.29009 19.9075 1.30547C19.9569 1.25855 20.0009 1.20788 20.0733 1.12969H20.0717ZM12.2851 1.12701C12.1777 1.12054 12.1332 1.11569 12.0897 1.11569C10.2833 1.11569 8.4768 1.11568 6.66927 1.12053C6.54773 1.12587 6.43063 1.16793 6.33331 1.24128C5.12901 2.15795 3.92792 3.07912 2.73006 4.00479C2.57711 4.12234 2.42523 4.24101 2.20573 4.41194H2.56906C4.24134 4.41194 5.91524 4.37688 7.58592 4.42811C8.30506 4.44968 8.84442 4.26958 9.36554 3.7584C10.287 2.85628 11.2783 2.02805 12.2867 1.12701H12.2851Z"/>
<path d="M8.7972 8.83946C7.91276 8.83946 7.02617 8.84378 6.14387 8.83946C5.66086 8.83623 5.38608 8.45126 5.57446 8.05601C5.68984 7.81498 5.90505 7.74702 6.15138 7.74649C6.81257 7.74649 7.47447 7.74649 8.13709 7.74649C9.22708 7.74649 10.3176 7.73678 11.4071 7.75565C11.6067 7.76024 11.7989 7.83309 11.9518 7.96217C12.2244 8.21992 12.0774 8.69173 11.7157 8.79849C11.5949 8.8297 11.4705 8.8437 11.3459 8.84004C10.4953 8.84112 9.64623 8.83946 8.7972 8.83946Z" />
</g>
<defs>
<clipPath id="clip0_14_218">
<rect width="22" height="21" fill="white"/>
</clipPath>
</defs>
</svg>
